<?xml version="1.0" encoding="utf-8"?>
<!-- Generator: Adobe Illustrator 18.1.1, SVG Export Plug-In . SVG Version: 6.00 Build 0)  -->
<svg version="1.1" id="LM_logo" xmlns="http://www.w3.org/2000/svg" xmlns:xlink="http://www.w3.org/1999/xlink" x="0px" y="0px"
	 viewBox="-173.4 322.3 460 118" enable-background="new -173.4 322.3 460 118" xml:space="preserve">
<g>
	<path fill="#616265" d="M-70,387.4c0,2.9,1.3,3.8,5.6,3.8s6.3-1.3,9.1-7.1h1l-1,9.1h-27v-1c4.1-1,4.4-1.9,4.4-5.7v-22.6
		c0-3.2-0.8-4.1-4.4-4.9v-1h16.7v1c-3.6,0.9-4.4,1.6-4.4,4.7V387.4z"/>
	<path fill="#616265" d="M-43,388.3c0,2.3,1.1,3.6,3.7,3.8v1h-14.3v-1c3-0.6,3.8-1.4,3.8-4.3v-12c0-2.8-0.8-3.6-4.1-4.2v-1l9.9-0.9
		h1V388.3z M-46.4,355.6c2.2,0,3.9,1.8,3.9,3.9c0,2.2-1.8,3.9-3.9,3.9s-3.9-1.8-3.9-3.9C-50.3,357.2-48.6,355.6-46.4,355.6"/>
	<path fill="#616265" d="M-28.1,375.4c2.3-2.2,3.6-2.7,5.3-2.7c4.1,0,6.7,3.8,6.7,9.4c0,7.4-3.4,10.4-8.4,10.4
		c-2.7,0-3.6-1.1-3.6-3.8L-28.1,375.4L-28.1,375.4z M-28.1,355.6h-1l-9.3,0.6v1c2.2,0.4,3.4,1.4,3.4,3.4v32.6
		c3.4,0.6,6.8,0.9,11,0.9c11,0,15.3-5.8,15.3-12.8c0-6.6-4.7-11.8-10.8-11.8c-3.3,0-6,1.3-8.8,4.2V355.6z"/>
	<path fill="#616265" d="M1.4,378.4c0.1-4.3,2-7.2,4.8-7.2s4.8,3,5.1,7.2H1.4z M18.5,379.8c-0.9-6.2-5.5-10.3-11.9-10.3
		c-7.1,0-12.7,5.3-12.7,12.4c0,7,5.3,12,12.4,12c5.5,0,10.1-3,12.2-7.9h-1c-2.2,3.3-4.8,4.9-8.1,4.9c-4.2,0-8.4-3.8-8.1-11.3
		C1.3,379.8,18.5,379.8,18.5,379.8z"/>
	<path fill="#616265" d="M40.3,378.4c-2-1.9-3.6-2.9-5.1-2.9c-2,0-3.3,0.9-5.1,3.3v9.1c0,2.7,0.5,3.6,3.8,4.2v1H19.5v-1
		c3-0.8,3.8-1.6,3.8-4.2v-12c0-2.9-1.3-4.2-4.2-4.4v-1l9.9-0.9h1v7.2h0.1c2.3-4.9,4.7-7.2,7.5-7.2c1.5,0,2.9,0.6,4.1,1.9L40.3,378.4
		z"/>
	<path fill="#616265" d="M78.6,370.5v1c2.9,0.6,3.6,2.4,1.5,7.2L77,386l-4.8-9.9c-1.4-2.9-1.4-4.2,1.1-4.6v-1H60.1h-0.4h-6.6v-8.8
		H52c-3.2,4.1-7,7.7-9.8,9.5v1.1h4.1V387c0,5.2,3.4,7.2,7.7,7.2c3.4,0,5.6-1.1,7.2-4.1l-0.8-0.6c-1.1,1.3-2.2,1.8-3.3,1.8
		c-3.2,0-4.2-2.2-4.2-5.8v-13.2h6.1c3.3,0,4.3,1.1,5.7,4.3l8.2,17.5c-2.8,7.5-5.2,10.5-9.4,10.5c-0.9,0-1.6,0-3-0.5l-1.4,6.8
		c0.9,0.1,1.3,0.1,1.9,0.1c4.7,0,7.2-2,9.6-7.5l11.4-26.1c1.9-4.2,2.5-5.1,5.5-5.8v-1h-9V370.5z"/>
	<path fill="#616265" d="M144.5,386.9c0.4,3,1.9,4.8,5.3,5.5v1h-17.4v-1c3.8-1,4.6-3.2,3.8-7.7l-2.9-20.2h-0.1l-11.4,28.9h-1.3
		l-11.3-28.9h-0.1l-3,20.7c-0.6,4.1,0.1,6.8,4.2,7.1v1H97.4v-1c3.8-0.1,5.5-2.3,6.2-7.7l3.6-23c-1.4-1.4-3.3-2.4-5.1-2.4v-1h12.7
		l9.3,23.2l9.4-23.2h11.9v1c-3.6,0.6-4.4,2.5-3.9,5.7L144.5,386.9z"/>
	<path fill="#616265" d="M152.6,375.6c0-2.5-0.9-3.4-3.6-3.9v-1l9.4-0.9h1v16.7c0,2.7,1.8,3.9,4.2,3.9c2.3,0,3.7-1,5.7-4.1v-11.3
		c0-1.9-1.3-2.9-3.6-3.4v-1l9.4-0.9h1v18.1c0,3,0.6,3.7,3.7,4.6v1l-10.4,0.9v-5.6h-0.4c-2.5,3.8-5.3,5.6-9,5.6c-4.7,0-7.5-2.5-7.5-7
		V375.6z"/>
	<path fill="#616265" d="M184.9,372.6h-4.1v-1.1c2.8-1.8,6.6-5.3,9.8-9.5h1.1v8.8h7.5v1.8h-7.5v13.1c0,3.7,1,5.8,4.2,5.8
		c1.1,0,2.3-0.5,3.3-1.8l0.8,0.6c-1.6,2.8-3.9,4.1-7.2,4.1c-4.3,0-7.7-2-7.7-7.2L184.9,372.6L184.9,372.6z"/>
	<path fill="#616265" d="M203.6,375.6c0-2.5-0.9-3.4-3.6-3.9v-1l9.4-0.9h1v16.7c0,2.7,1.8,3.9,4.2,3.9c2.3,0,3.7-1,5.7-4.1v-11.3
		c0-1.9-1.1-2.9-3.6-3.4v-1l9.4-0.9h1v18.1c0,3,0.6,3.7,3.6,4.6v1l-10.4,0.9v-5.6h-0.1c-2.5,3.8-5.3,5.6-9,5.6c-4.7,0-7.5-2.5-7.5-7
		L203.6,375.6L203.6,375.6z"/>
	<path fill="#616265" d="M246.2,389.4c-1.5,1.5-2.9,2.4-4.3,2.4c-1.9,0-3.2-1.6-3.2-4.1c0-3,1.8-4.4,7.4-6.8v8.5H246.2z M253,378.3
		c0-6.2-5.1-8.5-10-8.5c-5.3,0-9,2.8-10.1,7.7h0.9c1.4-2.5,3.7-3.8,6.8-3.8c4.1,0,5.7,1.9,5.7,6c-5.6,2-14.6,2.5-14.6,8.6
		c0,3.3,3,6,6.8,6c2.8,0,4.8-0.6,7.1-2.7l0.5-0.5c1.1,2.3,2.7,3.2,5.5,3.2c3.3,0,5.3-1.5,5.6-4.4h-1c-0.3,1.4-0.9,2.2-1.8,2.2
		c-1,0-1.4-0.9-1.4-3V378.3z"/>
	<path fill="#616265" d="M261.9,361.9c0-3.2-1-4.3-4.3-4.6v-1l10-0.6h1v32.2c0,3,0.6,3.7,4.1,4.6v1h-15.1v-1
		c3.3-0.5,4.3-1.6,4.3-4.6V361.9z"/>
	<path fill="#002663" d="M-90.4,369.3c-0.3-0.4-0.9-0.1-0.9-0.1l-10.5,3.9c-0.8-2-1.8-3.9-2.8-5.6l3.4-9.4c0,0,0.4-0.9,0-1.1
		s-1,0.4-1,0.4l-6.2,5.1c-2.4-2.5-5.3-4.7-8.5-6.2c-1.3-0.5-2.5-1-3.8-1.4l-1.9-7.4c0,0-0.1-0.8-0.6-0.8c-0.5,0-0.6,0.8-0.6,0.8
		l-1.3,6.6c-1.4-0.1-2.8-0.3-4.2-0.3c-4.7,0-8.8,0.9-12.4,2.5c-1.5,0.6-3,1.5-4.3,2.5c-0.3,0.1-0.4,0.4-0.6,0.5
		c-1.3-3.3-2.3-6-2.5-6.8c0.8-0.6,2.2-3,2.5-4.6c0.5-2.3,0.4-3.3-0.1-4.9c-0.4-1.3-1.1-2.4-1.1-3.2c0-0.6,0.4-1,0.6-1.3
		c-0.1-0.8-0.6-1.1-1.3-1.3s-1,0.1-1.5,0.1c-0.1-0.3-0.4-0.3-0.3-1c0.3-1.3,2.8-1.9,4.7-2.7c2.5-1,3.9-2.8,4.1-5.7
		c0-2.2-1.1-3.7-2.7-4.4c-0.3,0.9-1.5,2-2.4,2.5c-0.9,0.5-2,0.6-2.9,0.5c0.1-1.5-0.5-2.9-1.6-3.4c-0.4,0.6-1.8,1.6-3.8,1.5
		c-2,0-2.2-0.5-5.1-0.5c-4.2,0-7.6,2.5-8,6.2c-0.3,2.4,0.6,4.4,1.4,5.5c-0.5,0.4-1.8,1.5-1.9,1.9c-0.3-0.4-1.1-0.8-2.2-0.1
		c0.3,0.5,0.3,1.1,0.1,1.8s-1.6,3.6-1.9,6c-0.3,4.1,2,6.7,3.9,7.5c-0.4,0.6-0.5,1.4-0.3,1.9c0.3,0.4,0.6,0.8,1.4,0.8
		c-0.5,0.5-0.6,1.3-0.4,2c0.4,0.9,1.4,2.2,2.2,2.2c0,0.8,0.3,2.4,0.5,3.2c-0.3,0.5-0.6,1-0.5,2c0,1,0.8,1.9,1.6,2.2
		c0.3,0.5,0.4,1.1,0.6,1.4c0.3,0.4,0.5,0.8,1.3,1.1c0.6,0.4,1.4,0.8,2.3,0.8c0.9,0,1.6,0,2-0.1c0,0.3,0.1,2.5,0.3,5.1
		c-2.2,6.1-3.3,13.1-3.3,20.5l0,0c0,13.4,3.8,25.5,11.2,33.2c0,0,0.4,0.5,1.6,1.3c0,0,2.3-3.9,5.8-8.4c0.9-1.1,1.9-2.3,3-3.3
		c1.8-1.5,3.4-2.8,4.9-4.1c4.6-3,9.8-5.5,14.6-6.5c-5.6,2.9-8.6,4.4-13.8,8.9c-3.3,2.8-8.5,7.9-12.2,14.6c0.8,0.6,1.8,1.1,2.9,1.3
		c0.8-0.9,4.7-8,10.7-13.8c12.2-11.3,26.4-14,33.9-13.8c0.4-3,0.6-6.3,0.6-9.6c0-5.5-0.5-10.5-1.6-15.3l8.9-9.9
		C-90.8,370.3-90.2,369.6-90.4,369.3"/>
	<path fill="#FFFFFF" d="M-156.8,364.8c-0.5-0.3-1.9-1-3-0.9c-1.1,0-2.2,0.3-3,0.9c-0.4-0.3-0.5-0.8-0.3-1.4
		c0.3-0.6,0.6-0.6,0.6-0.6l-0.4-5.7c0,0,1.6-1.1,2-1.3c0.4-0.1,0.6-0.5,0.6-0.9c0.8,0.5,1.8,1.5,2.3,2.3c0.5,0.8,0.8,1.5,0.9,2.4
		c0,0.9,0,2-0.1,3.2c0.4,0.3,0.6,0.5,0.8,1C-156.4,364.2-156.6,364.4-156.8,364.8"/>
	<path fill="#FFFFFF" d="M-105.3,382.3c0-1.1-1.4-4.1-2.2-4.7l13.4-6L-105.3,382.3z"/>
	<path fill="#FFFFFF" d="M-142,360.1l11.4,10.3c-1.1,0.6-2.8,2.3-3.2,3.7L-142,360.1z"/>
	<path fill="#FFFFFF" d="M-135.5,380.6c-0.4,0.6-0.5,1-0.6,1.6c-0.1,0.8,0,1.1,0,1.8l-3.4-2.4c0-0.8-0.1-2.2-0.3-2.8
		c0-0.1,0-0.3,0-0.3L-135.5,380.6z"/>
	<path fill="#FFFFFF" d="M-154.6,381.6c-0.3-0.4-1.3-21.3-1.3-22.1l1.1-0.8v-0.3c-0.8,0-1.8-0.4-2-0.9l-0.3-6.5
		c-1.1-0.1-2.3-0.5-2.7-0.9c-0.5-0.5-1-1.1-0.4-2.4c0.5,0.4,2.2,0.9,3.7,0.9c0.3,0,0.9,0.6,1.3,0.8s1.1,0.5,1.4,0.6
		c0.3,0.1,0.5,0.8,0.5,1c0.1,0.3,10.5,27.3,10.7,27.5s0.8,4.8,0.8,5.2c0,0.4,1.6,3.9,1.9,4.3c-1.4,0-3.7,0.8-5.5,2.5
		c-1.8,1.8-3.4,5.7-3.8,7.5C-149.3,397.6-154.3,382-154.6,381.6"/>
	<path fill="#FFFFFF" d="M-141.4,407.3c-0.5,4.2-1.4,7.7-2.9,10.3c-1,1.6-3.7,5.1-4.7,6.2c1-2,1.8-7.1,1.8-10.9
		c0-2.5-0.8-8.1-0.1-11.8c0.8-3.9,1.9-6.2,4.4-8.6c1.4-1.3,4.1-2.8,8.1-1.8l3.2,6c-1.6-0.4-3.9,0-5.5,1.1
		C-140,400.2-140.9,403.1-141.4,407.3"/>
	<path fill="#FFFFFF" d="M-141,415.6c0.8-1.8,1.8-6.7,2-8.4c0.4-2.2,0.8-5.2,3.3-7.4c1.3-1,3.3-1.1,4.2-0.9l3.6,7.4
		c0.4,0.8,1.4,1,2.2,1C-129.2,408.3-137.9,412.4-141,415.6"/>
	<path fill="#FFFFFF" d="M-110.3,392.1c-0.6,0.9-0.4,1.8,0,2.4c0.4,0.6,2.3,4.2,2.3,4.2c0.6,1.6,1,2.4,1.6,3.4c1,0,2.2,0,3.3,0
		c-1.3-2.8-4.2-8.2-4.2-8.2l-0.1-4.4C-108.3,389.9-109.7,391.1-110.3,392.1"/>
	<path fill="#FFFFFF" d="M-125.7,368.6c1.4-0.3,4.7,0,5.7,0.5l-3.3-18.5L-125.7,368.6z"/>
	<path fill="#FFFFFF" d="M-153.2,351.4c-0.1-0.3-0.3-0.9-0.5-1c-0.4-0.1-1-0.5-1.4-0.6c-0.4-0.1-1-0.8-1.3-0.8c-1.4,0-3-0.5-3.7-0.9
		c-0.6,1.1-0.1,1.8,0.4,2.4c0.4,0.4,1.6,0.8,2.7,0.9l0.3,6.5c0.3,0.5,1.3,0.8,2,0.8v0.3l-1.1,0.8c0,0.8,1,21.7,1.3,22.1
		c0.3,0.4,5.3,16,5.5,16.9c0.4-1.8,2-5.7,3.8-7.5c1.9-1.8,4.1-2.7,5.5-2.5c-0.3-0.4-1.9-3.9-1.9-4.3c0-0.4-0.6-4.8-0.8-5.2
		C-142.8,378.7-153.2,351.6-153.2,351.4"/>
	<path fill="#FFFFFF" d="M-159.9,346.3c2.9,0,4.3,1.3,5.1,1.9c0.1-1-0.1-1.9-1-2.7c-0.8-0.6-2.2-1.1-4.2-1.1c-1.4,0-2.8,0.4-3.7,1.1
		c-0.8,0.6-0.9,1.4-0.8,2.5C-164.1,347.2-162.3,346.3-159.9,346.3"/>
	<path fill="#FFFFFF" d="M-165.1,330.8c-0.1,1.1,0.3,2.3,0.8,3c0.3,0.4,1,1.1,1.5,1.1c0.8,0,1.4-1.4,3.2-1.4c1.1,0,1.9,1.6,2.8,1.6
		c0.8,0,1.1-0.6,1.9-0.8c0.6-0.1,0.9,0.3,1.3,0.6c0.3-0.6,0.6-1,1.6-1.8c1.1-0.9,5.1-1.6,6.8-3.2c0.9-0.8,1-2.2,0.8-3
		c-0.6,0.9-2.4,1.9-4.2,1.9c-0.9,0-2.9-0.4-3.7-0.8c0.4-0.6,0.5-1.4,0.1-2c-0.5,0.4-3,0.6-3.9,0.6c-0.9,0-2.8-0.4-4.2-0.3
		C-163.6,326.8-165,329.1-165.1,330.8"/>
	<path fill="#FFFFFF" d="M-159.7,340.6c6.8,0.1,9.9,3.3,10,5.8c0.4-0.8,0.3-1.5,0.3-2.4c0-0.6-1-2.7-1.1-3.3c0-0.6,0.1-1.1,0.3-1.6
		c-0.4,0.1-1.9,0.6-2.5,0.1c-0.6-0.5-0.3-1.9-1.1-2.3c-0.9-0.4-2.3,0.8-3.3,0.6c-0.9-0.1-1.6-1.4-2.7-1.4c-1,0-1.4,1.1-2.5,1.4
		c-0.9,0.3-2-0.4-2.5-0.3c-0.6,0-0.9,0.5-1.1,1c-0.3,0.5-0.5,0.8-1.1,1c-0.5,0.1-1.4-0.4-1.8-0.3c0.3,0.3,0.5,1.5,0.1,2.3
		c-0.4,0.9-1.1,1.9-1.1,3c-0.1,1,0.3,1.4,0.5,2.2C-169.7,343-165.6,340.6-159.7,340.6"/>
	<path fill="#FFFFFF" d="M-164,353.8c-0.5,0.1-1.5,0.9-1.9,1.6c0.1,0.5,0.8,1.8,1.3,2c0.1-0.5,0.8-1.5,1-1.8
		c0.4-0.3,0.9-0.5,1.1-0.6c0.4-0.1,0.5-0.4,0.5-0.8s0-0.6-0.3-1c0.4,0,1,0,1.1-0.3c0.3-0.3,0.4-0.6,0.4-1s-0.1-0.5-0.5-0.5
		c-0.4,0-1.5-0.1-2,0c0,0,0.9-0.5,1.1-0.6c0.3-0.1,0.4-0.4,0.4-0.6c0-0.3,0-0.8-0.1-1.3c-1.3,0-3.6,1.1-4.2,1.8l0.5,1.1h-0.9
		c-0.1,0.6,0,1.5,0.3,2C-165.5,353.8-164.6,353.7-164,353.8"/>
	<path fill="#FFFFFF" d="M-108.2,380.8c-0.1-0.9-2.3-3.3-5.8-6.1c-2.8-2.2-6.8-4.2-10.3-4.2c-5.7,0-8,3.9-8.5,6
		c-0.3,1.3-0.3,2.5,0,3.3c-0.9,0.8-1.3,1.4-1.4,2.3c-0.1,0.6,0,1.5,0.6,2.2c0-0.9,0.5-1.8,1-2.4c0.5-0.8,1.4-1,2.2-1.5l0.1,1.5
		c-0.8,0.4-1.6,1.3-1.6,1.8v2.5l1.9-1.1l0.4,0.8l-0.8,4.6l1.1-0.3l2,0.8l-1.9,1.6v0.6c0,0,0.3-0.4,1-0.4c0.6,0,2.4,0.8,2.4,0.8
		l-0.1,0.4h-0.8h-2.7c-0.1,0.5,0.3,0.8,0.5,1c0.5-0.1,0.9-0.4,1.1-0.4s0.9,0.1,1.4,0.3l-0.6,0.9c0,0-0.4,0.3-0.9,0.1
		c-0.4-0.1-0.6,0.4-0.6,0.8c0,0.4,0.3,1.4,0.3,1.4c0.3,1.4,1.8,1.1,2,1.1c0.9-0.1,4.1-1.1,4.1-1.1l-2.9,4.2l1.3,4.4
		c1.9-0.8,7.7-2.9,14.1-3.9c-0.6-1.1-0.8-1.6-1.6-3.3l-3.3-7.5l0.5-1.1c0.8,0.3,1.8-0.3,2.5-0.9s1.5-1.6,1.9-2.3
		c-0.5-0.3-0.9-0.3-1.3,0.1c-0.4,0.3-0.6,0.8-1.3,0.5c-0.6-0.3-0.3-0.9-0.3-1.5c0.1-0.6-0.6-0.6-1.1-0.1c-0.5,0.5-1.6,0.3-2.3-0.5
		c-0.8-0.8-4.2-3.6-5.3-4.3c-1.8-1-4.2-1.3-5.8-1c-1,0.1-1.8,0.6-2.2,0.4l-1.3-2l0.3-0.1c0.5,0.3,0.9,0.5,1.5,0.4
		c0.6-0.3,2.4-0.6,4.2-0.6c2.5,0,5.7,0.9,7.1,1.5c0,1.6,3.4,3.8,4.9,4.1c1.3,0.1,2-0.1,2.8-0.6l-3.3-2.9l1.8-2.2
		c0,0,2.8,2.7,3.2,3.2C-107.9,381.7-108.1,381.2-108.2,380.8 M-128.1,384.1c0,0,1.4-0.8,2.8-1.1c2-0.4,4.2,0.8,5.7,2l-0.3,0.5
		l-2.3,0.5c-0.4-0.4-1.3-0.5-2.2-0.5c-0.8,0-1.4,0.4-1.4,0.4l0.4,0.8l-1,0.3c-0.5-0.6-1.1-1.3-1.8-1.5V384.1z M-131.4,379
		c-0.6-1.9,1-3.9,1.6-4.6l1.1,2.5C-129.5,377.4-130.8,378.4-131.4,379 M-121.2,376.9c-1-0.8-4.4-0.6-5.8-0.3l-1-3
		c0.8-0.6,2.3-1,3.7-1c1.4,0,2.8,0.4,3.9,0.9L-121.2,376.9z M-114.5,379.9c-1.4-0.9-4.2-2.3-5.1-2.5l1.3-3.2c1,0.5,4.8,2.8,5.5,3.4
		L-114.5,379.9z"/>
	<path fill="#FFFFFF" d="M-114.9,371.4c1.3,0.5,3.9,2.8,4.7,3.3l6.8-14.6L-114.9,371.4z"/>
	<path fill="#616265" d="M279.6,385.4c2,0,3.9,1.6,3.9,4.1s-1.9,4.1-3.9,4.1s-3.9-1.6-3.9-4.1S277.5,385.4,279.6,385.4 M279.6,392.6
		c1.6,0,3-1.3,3-3.2c0-1.9-1.4-3.2-3-3.2s-3,1.3-3,3.2C276.6,391.3,277.9,392.6,279.6,392.6 M278,387.3h1.6c1.1,0,1.6,0.4,1.6,1.3
		c0,0.8-0.5,1.1-1.1,1.1l1.1,1.9h-0.9l-1.1-1.9h-0.6v2h-0.8v-4.4H278z M278.9,389.2h0.8c0.5,0,0.9-0.1,0.9-0.6
		c0-0.5-0.5-0.6-0.9-0.6h-0.8V389.2z"/>
	<rect x="-81.7" y="405.8" fill="#616265" width="137.6" height="1.4"/>
	<rect x="74.8" y="405.8" fill="#616265" width="198.5" height="1.4"/>
	<g>
		<path fill="#616265" d="M-2.4,419.4h3.6v19.2h-3.6V419.4z"/>
		<path fill="#616265" d="M11.8,419.4h3.3l8,13.6l0,0v-13.6h3.3v19.2h-3.2l-8-13.6l0,0v13.6h-3.4V419.4z"/>
		<path fill="#616265" d="M37.7,432.7c1.4,2,3.4,2.9,5.8,2.9c1.8,0,4.1-0.6,4.1-2.4c0-1.5-1.4-1.9-3.9-2.5l-2.2-0.5
			c-3-0.8-5.7-1.8-5.7-5.3c0-4.1,3.8-6,7.4-6c3.3,0,6,1.3,8,3.8l-3,2.3c-0.9-1.8-2.7-2.8-5.1-2.8c-2,0-3.7,0.8-3.7,2.2
			c0,1.6,1.8,1.9,3.9,2.4l2.3,0.5c2.8,0.6,5.6,1.8,5.6,5.5c0,4.7-4.4,6.3-8.4,6.3c-3.2,0-6.5-1.4-8.2-4.1L37.7,432.7z"/>
		<path fill="#616265" d="M76.1,432.6c0,3.9-3,6.3-7.7,6.3c-4.6,0-7.7-2.4-7.7-6.3v-13.2h3.6v12.3c0,2.3,1,3.8,4.1,3.8
			s4.1-1.5,4.1-3.8v-12.3h3.6v13.2C75.9,432.6,76.1,432.6,76.1,432.6z"/>
		<path fill="#616265" d="M86.4,419.4h8c4.1,0,6.5,2.4,6.5,5.8c0,4.3-2.9,5.3-3.8,5.7l4.3,7.7h-4.2l-3.7-7.1h-3.4v7.1h-3.6v-19.3
			H86.4z M89.9,428.2h3.9c1.8,0,3.2-1,3.2-2.9c0-1.8-1.1-2.9-3.7-2.9h-3.4L89.9,428.2L89.9,428.2z"/>
		<path fill="#616265" d="M114.7,419.4h4.2l6.3,19.2h-3.8l-1.1-3.7H113l-1.1,3.7h-3.8L114.7,419.4z M116.8,422.8L116.8,422.8
			l-2.7,8.8h5.3L116.8,422.8z"/>
		<path fill="#616265" d="M133.4,419.4h3.3l8,13.6l0,0v-13.6h3.3v19.2h-3.3l-8-13.6l0,0v13.6h-3.3V419.4z"/>
		<path fill="#616265" d="M170.7,425.8c-0.3-2.2-2-3.6-4.2-3.6c-3.8,0-5.5,3.4-5.5,6.7c0,3.3,1.5,6.7,5.5,6.7c2.5,0,3.9-1.6,4.6-3.9
			l3.3,1.5c-1.5,3.8-4.1,5.7-7.9,5.7c-6.1,0-9.1-4.7-9.1-10c0-5.5,3.4-10,9.1-10c3.8,0,6.7,2,7.7,6L170.7,425.8z"/>
		<path fill="#616265" d="M182.1,419.4h13.6v3.3h-9.9v4.3h9.1v3.2h-9.1v4.9h10.7v3.3h-14.2v-19H182.1z"/>
	</g>
</g>
</svg>
