<?xml version="1.0" encoding="utf-8"?>
<!-- Generator: Adobe Illustrator 15.0.0, SVG Export Plug-In . SVG Version: 6.00 Build 0)  -->
<!DOCTYPE svg PUBLIC "-//W3C//DTD SVG 1.1//EN" "http://www.w3.org/Graphics/SVG/1.1/DTD/svg11.dtd">
<svg version="1.1" id="Layer_1" xmlns="http://www.w3.org/2000/svg" xmlns:xlink="http://www.w3.org/1999/xlink" x="0px" y="0px"
	 width="116.1px" height="33.504px" viewBox="0 0 116.1 33.504" enable-background="new 0 0 116.1 33.504" xml:space="preserve">
<path fill="#616265" d="M0,1h10.5c2.7,0,4.8,0.7,6.1,2.1C17.7,4.2,18.2,5.5,18.2,7v0.1C18.2,7.8,18.1,8.4,17.9,9
	C17.7,9.5,17.5,10,17.2,10.4c-0.301,0.4-0.7,0.8-1.101,1.1c-0.399,0.3-0.8,0.6-1.3,0.8c0.7,0.2,1.3,0.5,1.9,0.9
	c0.6,0.3,1.1,0.7,1.5,1.2c0.399,0.4,0.699,1,1,1.6c0.199,0.6,0.3,1.3,0.3,2.1V18.2c0,1.1-0.2,2-0.601,2.8c-0.399,0.8-1,1.5-1.8,2
	s-1.7,0.9-2.8,1.2S12,24.6,10.7,24.6H0V1z M14.1,7.7C14.1,6.8,13.7,6,13,5.5S11.3,4.7,9.9,4.7H4.1v6.2H9.7
	c1.3,0,2.399-0.3,3.199-0.8C13.7,9.6,14.1,8.8,14.1,7.7L14.1,7.7z M15.5,17.6c0-1-0.4-1.8-1.2-2.3s-2-0.8-3.6-0.8H4.1V21H11
	c1.399,0,2.5-0.3,3.3-0.8C15.1,19.5,15.5,18.7,15.5,17.6L15.5,17.6z M35.8,6.8H40L33,25c-0.4,0.9-0.7,1.7-1.101,2.3
	C31.5,27.9,31.1,28.4,30.6,28.8c-0.5,0.4-1,0.7-1.5,0.9C28.5,29.9,27.9,30,27.2,30c-0.9,0-1.601-0.1-2.301-0.3
	C24.2,29.5,23.6,29.2,23,28.9l1.399-3c0.4,0.199,0.801,0.399,1.2,0.5c0.4,0.1,0.8,0.199,1.2,0.199c0.6,0,1.1-0.1,1.4-0.399
	c0.399-0.3,0.699-0.8,1.1-1.601L21.8,6.8h4.4l5,13.2L35.8,6.8z M44,1H48.4l7.2,11.1L62.7,1H67.1v23.5H63V7.7l-7.4,11.1h-0.1L48,7.7
	v16.8h-4V1z M72.7,0.2H77.1v3.9H72.7V0.2z M72.9,6.8H77v17.7H72.9V6.8z M82.5,0h4.1v24.5h-4.1V0z M100,24.9
	c-1.3,0-2.5-0.2-3.601-0.7c-1.1-0.4-2.1-1.101-2.899-1.9S92,20.5,91.6,19.4c-0.5-1.101-0.7-2.4-0.7-3.7V15.6
	c0-1.3,0.2-2.5,0.601-3.6c0.399-1.1,1-2.1,1.8-2.9c0.8-0.8,1.7-1.5,2.7-2c1.1-0.5,2.2-0.7,3.5-0.7c1.399,0,2.7,0.3,3.7,0.8
	c1.1,0.5,2,1.2,2.699,2.1c0.7,0.9,1.2,1.9,1.601,3c0.399,1.2,0.5,2.4,0.5,3.601c0,0.199,0,0.399,0,0.6s0,0.4-0.101,0.6H95
	c0.2,1.5,0.8,2.601,1.7,3.301C97.6,21.2,98.8,21.6,100.1,21.6c1,0,1.9-0.199,2.601-0.5c0.699-0.399,1.5-0.899,2.199-1.6l2.4,2.1
	c-0.9,1-1.9,1.801-3,2.4C103.1,24.6,101.7,24.9,100,24.9z M104,14.4c-0.101-0.6-0.2-1.3-0.4-1.8c-0.2-0.6-0.5-1.1-0.899-1.5
	c-0.4-0.4-0.801-0.7-1.4-1c-0.5-0.2-1.1-0.4-1.8-0.4c-1.2,0-2.3,0.4-3.101,1.3c-0.8,0.9-1.3,2-1.5,3.4H104z M112.8,3
	c0.6,0,1.1,0.1,1.6,0.4c0.5,0.3,0.9,0.7,1.2,1.2s0.4,1.1,0.4,1.7c0,0.6-0.101,1.1-0.4,1.6s-0.7,0.9-1.2,1.2
	c-0.5,0.3-1.1,0.4-1.6,0.4c-0.6,0-1.1-0.1-1.6-0.4c-0.5-0.3-0.9-0.7-1.2-1.2s-0.4-1.1-0.4-1.6c0-0.6,0.101-1.1,0.4-1.7
	c0.3-0.5,0.7-0.9,1.2-1.2C111.7,3.1,112.3,3,112.8,3z M112.8,3.6c-0.5,0-0.9,0.1-1.3,0.3c-0.4,0.2-0.7,0.6-1,1
	c-0.2,0.4-0.4,0.9-0.4,1.3c0,0.5,0.101,0.9,0.4,1.3s0.6,0.7,1,1c0.399,0.3,0.899,0.4,1.3,0.4c0.5,0,0.9-0.1,1.3-0.4
	c0.4-0.2,0.7-0.6,1-1c0.2-0.4,0.4-0.9,0.4-1.3c0-0.5-0.101-0.9-0.4-1.3c-0.2-0.4-0.6-0.8-1-1C113.7,3.7,113.3,3.6,112.8,3.6z
	 M111.4,8V4.5h0.7c0.7,0,1,0,1.101,0c0.199,0,0.399,0.1,0.5,0.1c0.1,0,0.199,0.2,0.3,0.3c0.1,0.2,0.1,0.3,0.1,0.5
	c0,0.3-0.1,0.5-0.2,0.6C113.7,6.2,113.5,6.3,113.2,6.3c0.1,0,0.199,0.1,0.199,0.1c0.101,0,0.101,0.1,0.2,0.3c0,0,0.101,0.2,0.3,0.4
	l0.4,0.7h-0.9l-0.3-0.6c-0.2-0.4-0.399-0.6-0.5-0.7c-0.1-0.1-0.3-0.1-0.5-0.1h-0.2V8H111.4z M112.1,6h0.3c0.4,0,0.7,0,0.801,0
	c0.1,0,0.199-0.1,0.199-0.2c0.101-0.1,0.101-0.2,0.101-0.3s0-0.2-0.101-0.3c-0.1-0.1-0.1-0.1-0.199-0.2c-0.101,0-0.4,0-0.801,0h-0.3
	V6z"/>
</svg>
